{"title":"2IN1_HOT &amp;SEXY_ENJOYING IN DIFFERENT STYLE","uid":8504027,"size":170148641,"categoryP":"porn","categoryS":"movies","magnet":"?xt=urn:btih:28b45f6969ccd7a9fca0b3484d5db5e25bd67044&amp;dn=2IN1_HOT+%26amp%3BSEXY_ENJOYING+IN+DIFFERENT+STYLE&amp;tr=udp%3A%2F%2Ftracker.openbittorrent.com%3A80&amp;tr=udp%3A%2F%2Fopen.demonii.com%3A1337&amp;tr=udp%3A%2F%2Ftracker.coppersurfer.tk%3A6969&amp;tr=udp%3A%2F%2Fexodus.desync.com%3A6969","seeders":0,"leechers":0,"uploader":"somnath2003","files":1,"time":1369380056,"description":"[img]http://www.shotpix.com/images/44663617507488027387.gif[/img]\n\n\n\n\n[code]Complete name                            : 2IN1_HOT &amp;SEXY_ENJOYING IN DIFFERENT STYLE\nFormat                                   : MPEG-4\nFormat profile                           : Base Media\nCodec ID                                 : isom\nFile size                                : 162 MiB\nDuration                                 : 17mn 3s\nOverall bit rate mode                    : Variable\nOverall bit rate                         : 1 330 Kbps\nWriting application                      : Lavf53.24.2[/code]\n\n\n[img]http://www.shotpix.com/images/34235854661596452485.gif[/img]\n\n\n\n[code]ID                                       : 1\nFormat                                   : AVC\nFormat/Info                              : Advanced Video Codec\nFormat profile                           : &lt;a class=&quot;__cf_email__&quot; href=&quot;/cdn-cgi/l/email-protection&quot; data-cfemail=&quot;4e032f27200e027d607f&quot;&gt;[email&amp;#160;protected]&lt;/a&gt;&lt;script cf-hash='f9e31' type=&quot;text/javascript&quot;&gt;\n/* &lt;![CDATA[ */!function(){try{var t=&quot;currentScript&quot;in document?document.currentScript:function(){for(var t=document.getElementsByTagName(&quot;script&quot;),e=t.length;e--;)if(t[e].getAttribute(&quot;cf-hash&quot;))return t[e]}();if(t&amp;&amp;t.previousSibling){var e,r,n,i,c=t.previousSibling,a=c.getAttribute(&quot;data-cfemail&quot;);if(a){for(e=&quot;&quot;,r=parseInt(a.substr(0,2),16),n=2;a.length-n;n+=2)i=parseInt(a.substr(n,2),16)^r,e+=String.fromCharCode(i);e=document.createTextNode(e),c.parentNode.replaceChild(e,c)}}}catch(u){}}();/* ]]&gt; */&lt;/script&gt;\nFormat settings, CABAC                   : Yes\nFormat settings, ReFrames                : 2 frames\nCodec ID                                 : avc1\nCodec ID/Info                            : Advanced Video Coding\nDuration                                 : 17mn 3s\nSource duration                          : 17mn 2s\nBit rate                                 : 1 305 Kbps\nWidth                                    : 960 pixels\nHeight                                   : 544 pixels\nDisplay aspect ratio                     : 16:9\nOriginal display aspect ratio            : 16:9\nFrame rate mode                          : Variable\nFrame rate                               : 19.980 fps\nMinimum frame rate                       : 9.990 fps\nMaximum frame rate                       : 999.000 fps\nColor space                              : YUV\nChroma subsampling                       : 4:2:0\nBit depth                                : 8 bits\nScan type                                : Progressive\nBits/(Pixel*Frame)                       : 0.125\nStream size                              : 155 MiB (95%)\nSource stream size                       : 155 MiB (95%)\nWriting library                          : x264 core 107[/code]\n\n\n[img]http://www.shotpix.com/images/54760780871226007874.gif[/img]\n\n\n\n[code]ID                                       : 2\nFormat                                   : AAC\nFormat/Info                              : Advanced Audio Codec\nFormat profile                           : LC\nCodec ID                                 : 40\nDuration                                 : 17mn 2s\nBit rate mode                            : Variable\nBit rate                                 : 53.6 Kbps\nMaximum bit rate                         : 60.7 Kbps\nChannel(s)                               : 2 channels\nChannel positions                        : Front: L R\nSampling rate                            : 44.1 KHz\nCompression mode                         : Lossy\nStream size                              : 6.53 MiB (4%)[/code]\n\n[img]http://www.shotpix.com/images/50894759808379845433.gif[/img]\n\n\n\n\n\n[img]http://www.shotpix.com/images/18117427819366040396.png[/img]\n\n\n\n\n\n\n[img]http://www.shotpix.com/images/37530658244654420663.jpg[/img]\n\n\n\n\n[img]http://www.shotpix.com/images/58829411693773444709.gif[/img]\n","torrent":{"xt":"urn:btih:28b45f6969ccd7a9fca0b3484d5db5e25bd67044","amp;dn":"2IN1_HOT+%26amp%3BSEXY_ENJOYING+IN+DIFFERENT+STYLE","amp;tr":["udp%3A%2F%2Ftracker.openbittorrent.com%3A80","udp%3A%2F%2Fopen.demonii.com%3A1337","udp%3A%2F%2Ftracker.coppersurfer.tk%3A6969","udp%3A%2F%2Fexodus.desync.com%3A6969"],"infoHash":"28b45f6969ccd7a9fca0b3484d5db5e25bd67044","infoHashBuffer":{"type":"Buffer","data":[40,180,95,105,105,204,215,169,252,160,179,72,77,93,181,226,91,214,112,68]},"announce":[],"urlList":[]}}